<svg width="534" height="162" viewBox="0 0 534 162" fill="none" xmlns="http://www.w3.org/2000/svg">
<path d="M205.194 143.709C229.802 143.709 246.97 131.309 250.976 110.707H229.42C226.75 119.673 218.356 124.633 205.575 124.633C190.124 124.633 181.349 116.239 179.632 99.6431L250.595 99.4523V92.3942C250.595 63.0172 232.663 44.1319 204.431 44.1319C176.771 44.1319 157.504 64.5432 157.504 94.111C157.504 123.297 177.152 143.709 205.194 143.709ZM204.622 63.2079C218.547 63.2079 227.513 71.7921 227.513 84.7638H180.204C182.493 70.6476 190.887 63.2079 204.622 63.2079Z" fill="#1D1929"/>
<path d="M296.331 143.709C311.019 143.709 323.8 137.032 327.806 127.303L329.523 141.229H349.934V84.0007C349.934 57.8666 334.292 44.1319 308.921 44.1319C283.359 44.1319 266.572 57.4851 266.572 77.8964H286.411C286.411 67.9769 294.042 62.2541 307.776 62.2541C319.604 62.2541 327.234 67.4046 327.234 80.1855V82.2839L299.002 84.3823C276.683 86.0991 264.092 96.9724 264.092 114.332C264.092 132.072 276.301 143.709 296.331 143.709ZM303.961 126.159C293.47 126.159 287.747 121.962 287.747 113.378C287.747 105.747 293.279 100.978 307.776 99.6431L327.425 98.117V103.077C327.425 117.574 318.268 126.159 303.961 126.159Z" fill="#1D1929"/>
<path d="M403.541 141.229V66.4508H421.854V46.9933H403.541V17.6163H380.268V46.9933H362.146V66.4508H380.268V141.229H403.541Z" fill="#1D1929"/>
<path d="M447.958 28.1081C455.589 28.1081 461.884 21.813 461.884 13.9919C461.884 6.17072 455.589 0.0664062 447.958 0.0664062C439.946 0.0664062 433.651 6.17072 433.651 13.9919C433.651 21.813 439.946 28.1081 447.958 28.1081ZM436.322 141.229H459.595V46.9933H436.322V141.229Z" fill="#1D1929"/>
<path d="M515.687 141.229V66.4508H534V46.9933H515.687V17.6163H492.414V46.9933H474.292V66.4508H492.414V141.229H515.687Z" fill="#1D1929"/>
<path d="M46.9067 37.1139C49.1831 45.7457 54.5163 51.9822 61.0562 59.0577C68.1681 66.7484 75.1107 74.5286 74.6031 85.6467C74.6381 86.4129 74.6367 87.1624 74.6031 87.8966V108.843C75.403 113.984 70.0894 109.871 65.7546 115.285C63.4655 118.141 59.1615 117.791 54.8295 119.347C51.2177 123.868 48.3973 128.506 46.9053 134.179H103.306C101.602 127.712 98.1802 122.59 93.8202 117.451C90.1384 117.921 86.7154 120.298 84.713 117.8C80.3782 112.385 74.8087 113.989 75.6141 108.85V87.9749C75.5764 87.2156 75.5736 86.4367 75.6141 85.6467C75.1065 74.5286 82.0464 66.7512 89.1624 59.0577C91.4557 56.5743 93.6021 54.1957 95.5192 51.7864C75.6826 52.1262 78.8596 34.9409 46.9067 37.1139Z" fill="#1D1929"/>
<path d="M39.1545 30.0742C39.9935 46.2038 48.8476 55.7823 56.2923 63.8366C62.8853 70.968 68.501 77.0479 67.9598 85.6503C68.501 94.2514 62.8853 100.333 56.2923 107.464C48.8476 115.52 39.9963 125.098 39.1545 141.226H111.874C111.035 125.098 102.181 115.52 94.7348 107.464C88.1417 100.333 82.5261 94.2541 83.0686 85.6503C82.5261 77.0507 88.1417 70.968 94.7348 63.8366C102.181 55.7823 111.031 46.2038 111.874 30.0742H39.1545ZM51.8792 67.9155C43.2851 58.6194 32.9795 47.4679 33.0704 27.3041V27.0329L33.0956 24.0391H117.926L117.951 27.0329V27.3041C118.043 47.4679 107.743 58.6264 99.1437 67.9155C93.4637 74.0597 88.6339 79.2866 89.094 85.4238V85.8782C88.6339 92.0168 93.4637 97.2423 99.1437 103.388C107.736 112.677 118.039 123.827 117.951 143.992V144.262L117.926 147.256H33.1012L33.076 144.262V143.992C32.9851 123.827 43.2907 112.67 51.8848 103.381C57.5633 97.2354 62.3945 92.0098 61.9331 85.8712V85.4238C62.3945 79.2866 57.5633 74.0597 51.8848 67.9155H51.8792Z" fill="#1D1929"/>
<path fill-rule="evenodd" clip-rule="evenodd" d="M31.4621 18.6133H119.564C121.084 18.6173 122.54 19.2227 123.614 20.297C124.688 21.3712 125.294 22.8271 125.298 24.3464C125.294 25.8658 124.689 27.3218 123.614 28.3962C122.54 29.4706 121.084 30.0758 119.564 30.0795H31.4621C29.9428 30.0754 28.487 29.4701 27.4127 28.3958C26.3384 27.3215 25.7331 25.8656 25.729 24.3464C25.7334 22.8272 26.3389 21.3716 27.4131 20.2974C28.4873 19.2232 29.943 18.6177 31.4621 18.6133Z" fill="#1D1929"/>
<path fill-rule="evenodd" clip-rule="evenodd" d="M31.4621 141.221H119.564C121.084 141.225 122.54 141.83 123.614 142.904C124.688 143.979 125.294 145.435 125.298 146.954C125.294 148.473 124.689 149.929 123.614 151.004C122.54 152.078 121.084 152.683 119.564 152.687H31.4621C29.9428 152.683 28.487 152.078 27.4127 151.003C26.3384 149.929 25.7331 148.473 25.729 146.954C25.7334 145.435 26.3389 143.979 27.4131 142.905C28.4873 141.831 29.943 141.225 31.4621 141.221Z" fill="#1D1929"/>
</svg>
