<svg width="36" height="36" viewBox="0 0 36 36" fill="none" xmlns="http://www.w3.org/2000/svg">
<rect width="36" height="36" rx="18" fill="white"/>
<path d="M25 21.1815V17.2989C25 13.9622 25 12.2954 23.9749 11.2587C22.9498 10.2227 21.2993 10.2227 18 10.2227C14.7007 10.2227 13.0502 10.2227 12.0251 11.2587C11 12.2947 11 13.9638 11 17.2989V21.1823C11 23.5903 11 24.7951 11.5709 25.3209C11.8431 25.5721 12.1869 25.73 12.5532 25.772C13.3209 25.8599 14.2177 25.0665 16.0104 23.4807C16.8038 22.7799 17.1997 22.4291 17.6578 22.3373C17.8833 22.2907 18.1167 22.2907 18.3422 22.3373C18.8011 22.4291 19.197 22.7799 19.9896 23.4807C21.7823 25.0665 22.6791 25.8599 23.4468 25.7712C23.8123 25.73 24.1569 25.5721 24.4291 25.3209C25 24.7951 25 23.5903 25 21.1815Z" stroke="black" stroke-width="1.16667"/>
<path d="M20.3332 13.334H15.6665" stroke="black" stroke-width="1.16667" stroke-linecap="round"/>
</svg>
