<svg width="33" height="32" viewBox="0 0 33 32" fill="none" xmlns="http://www.w3.org/2000/svg">
<path d="M3.16675 4L3.51996 4.11774C5.28001 4.70442 6.16004 4.99776 6.66339 5.69613C7.16675 6.3945 7.16675 7.32213 7.16675 9.17738V12.6667C7.16675 16.4379 7.16675 18.3235 8.33832 19.4951C9.50989 20.6667 11.3955 20.6667 15.1667 20.6667H25.8334" stroke="#A3A3A3" stroke-width="1.5" stroke-linecap="round"/>
<path opacity="0.5" d="M10.5 24C11.6046 24 12.5 24.8954 12.5 26C12.5 27.1046 11.6046 28 10.5 28C9.39543 28 8.5 27.1046 8.5 26C8.5 24.8954 9.39543 24 10.5 24Z" stroke="#A3A3A3" stroke-width="1.5"/>
<path opacity="0.5" d="M22.5 24.0001C23.6046 24.0001 24.5 24.8955 24.5 26.0001C24.5 27.1047 23.6046 28.0001 22.5 28.0001C21.3954 28.0001 20.5 27.1047 20.5 26.0001C20.5 24.8955 21.3954 24.0001 22.5 24.0001Z" stroke="#A3A3A3" stroke-width="1.5"/>
<path opacity="0.5" d="M15.1667 12H11.1667" stroke="#A3A3A3" stroke-width="1.5" stroke-linecap="round"/>
<path d="M7.16675 8H22.4339C25.1739 8 26.5439 8 27.1367 8.89902C27.7295 9.79804 27.1898 11.0572 26.1105 13.5757L25.5391 14.909C25.0352 16.0848 24.7832 16.6727 24.2823 17.003C23.7813 17.3333 23.1417 17.3333 21.8625 17.3333H7.16675" stroke="#A3A3A3" stroke-width="1.5"/>
</svg>
