<svg width="33" height="32" viewBox="0 0 33 32" fill="none" xmlns="http://www.w3.org/2000/svg">
<path fill-rule="evenodd" clip-rule="evenodd" d="M2.21809 3.68404C2.39274 3.1601 2.95906 2.87694 3.483 3.05159L3.83622 3.16933C3.85382 3.17519 3.87136 3.18104 3.88885 3.18687C4.72401 3.46523 5.42979 3.70046 5.98476 3.95863C6.57468 4.23307 7.08653 4.57319 7.47466 5.11169C7.86279 5.65019 8.0236 6.24334 8.0974 6.88976C8.16683 7.4979 8.16681 8.24184 8.16678 9.12217L8.16678 12.6669C8.16678 14.5808 8.1689 15.9156 8.3043 16.9228C8.43584 17.9011 8.67644 18.4192 9.04545 18.7883C9.41447 19.1573 9.93257 19.3979 10.9109 19.5294C11.9181 19.6648 13.2529 19.6669 15.1668 19.6669H24.5001C25.0524 19.6669 25.5001 20.1147 25.5001 20.6669C25.5001 21.2192 25.0524 21.6669 24.5001 21.6669H15.0936C13.2702 21.667 11.8004 21.667 10.6444 21.5116C9.4443 21.3502 8.4338 21.005 7.63124 20.2025C6.82869 19.3999 6.48349 18.3894 6.32214 17.1893C6.16672 16.0333 6.16675 14.5636 6.16677 12.7401L6.16677 9.17765C6.16677 8.22699 6.16526 7.59797 6.11031 7.11663C6.05827 6.66083 5.96741 6.44098 5.85218 6.28111C5.73695 6.12124 5.55712 5.96552 5.14117 5.77201C4.7019 5.56767 4.10564 5.36732 3.20376 5.06669L2.85055 4.94895C2.3266 4.77431 2.04344 4.20799 2.21809 3.68404Z" fill="#F8951D"/>
<path opacity="0.5" d="M8.1604 8C8.16702 8.34549 8.16701 8.71943 8.167 9.12187L8.167 12.6667C8.167 14.5806 8.16912 15.9154 8.30453 16.9225C8.32429 17.0695 8.34651 17.2061 8.37126 17.3333H21.863C23.1423 17.3333 23.7819 17.3333 24.2828 17.003C24.7838 16.6727 25.0357 16.0848 25.5396 14.909L26.111 13.5757C27.1904 11.0572 27.73 9.79804 27.1372 8.89902C26.5444 8 25.1744 8 22.4345 8H8.1604Z" fill="#F8951D"/>
<path d="M10.1667 12C10.1667 11.4477 10.6145 11 11.1667 11H15.1667C15.719 11 16.1667 11.4477 16.1667 12C16.1667 12.5523 15.719 13 15.1667 13H11.1667C10.6145 13 10.1667 12.5523 10.1667 12Z" fill="#F8951D"/>
<path d="M10.5 24C11.6046 24 12.5 24.8954 12.5 26C12.5 27.1046 11.6046 28 10.5 28C9.39543 28 8.5 27.1046 8.5 26C8.5 24.8954 9.39543 24 10.5 24Z" fill="#F8951D"/>
<path d="M24.5 26.0001C24.5 24.8955 23.6046 24.0001 22.5 24.0001C21.3954 24.0001 20.5 24.8955 20.5 26.0001C20.5 27.1047 21.3954 28.0001 22.5 28.0001C23.6046 28.0001 24.5 27.1047 24.5 26.0001Z" fill="#F8951D"/>
</svg>
