<svg width="33" height="32" viewBox="0 0 33 32" fill="none" xmlns="http://www.w3.org/2000/svg">
<path opacity="0.1" d="M5.83325 26.6673H27.1666V5.33398H5.83325V26.6673ZM20.1666 8.00065C22.0066 8.00065 23.4999 10.0407 23.4999 12.5473C23.4999 14.5207 22.5666 16.1607 21.2733 16.7873L21.1666 16.8273V25.334H19.1666V16.8273L19.0599 16.774C17.7666 16.1473 16.8333 14.5073 16.8333 12.534C16.8333 10.0273 18.3399 8.00065 20.1666 8.00065ZM9.16659 8.66732C9.16659 8.29398 9.45992 8.00065 9.83325 8.00065C10.2066 8.00065 10.4999 8.29398 10.4999 8.66732V12.0007H11.4999V8.66732C11.4999 8.29398 11.7933 8.00065 12.1666 8.00065C12.5399 8.00065 12.8333 8.29398 12.8333 8.66732V12.0007H13.8333V8.66732C13.8333 8.29398 14.1399 8.00065 14.4999 8.00065C14.8733 8.00065 15.1666 8.29398 15.1666 8.66732V13.734C15.1666 14.974 14.3133 16.014 13.1666 16.3073V25.334H11.1666V16.3073C10.0199 16.014 9.16659 14.974 9.16659 13.734V8.66732Z" fill="#F8951D"/>
<path d="M27.1667 2.66602H5.83341C4.36675 2.66602 3.16675 3.86602 3.16675 5.33268V26.666C3.16675 28.1327 4.36675 29.3327 5.83341 29.3327H27.1667C28.6334 29.3327 29.8334 28.1327 29.8334 26.666V5.33268C29.8334 3.86602 28.6334 2.66602 27.1667 2.66602ZM27.1667 26.666H5.83341V5.33268H27.1667V26.666Z" fill="#F8951D"/>
<path d="M11.1667 16.3067V25.3333H13.1667V16.3067C14.3134 16.0133 15.1667 14.9733 15.1667 13.7333V8.66667C15.1667 8.29333 14.8734 8 14.5001 8C14.1401 8 13.8334 8.29333 13.8334 8.66667V12H12.8334V8.66667C12.8334 8.29333 12.5401 8 12.1667 8C11.7934 8 11.5001 8.29333 11.5001 8.66667V12H10.5001V8.66667C10.5001 8.29333 10.2067 8 9.83341 8C9.46008 8 9.16675 8.29333 9.16675 8.66667V13.7333C9.16675 14.9733 10.0201 16.0133 11.1667 16.3067ZM19.0601 16.7733L19.1667 16.8267V25.3333H21.1667V16.8267L21.2734 16.7867C22.5667 16.16 23.5001 14.52 23.5001 12.5467C23.5001 10.04 22.0067 8 20.1667 8C18.3401 8 16.8334 10.0267 16.8334 12.5333C16.8334 14.5067 17.7667 16.1467 19.0601 16.7733Z" fill="#F8951D"/>
</svg>
