<svg width="33" height="32" viewBox="0 0 33 32" fill="none" xmlns="http://www.w3.org/2000/svg">
<mask id="path-1-inside-1_4422_3979" fill="white">
<path d="M6.65467 28C6.04045 28 5.52756 27.7947 5.116 27.384C4.70445 26.9733 4.49911 26.4609 4.5 25.8467V6.15333C4.5 5.54 4.70578 5.028 5.11734 4.61733C5.52889 4.20667 6.04089 4.00089 6.65334 4H26.3467C26.96 4 27.472 4.20578 27.8827 4.61733C28.2933 5.02889 28.4991 5.54133 28.5 6.15467V25.8467C28.5 26.46 28.2942 26.9724 27.8827 27.384C27.4711 27.7956 26.9591 28.0009 26.3467 28H6.65467ZM6.65467 26.6667H26.3467C26.5511 26.6667 26.7391 26.5813 26.9107 26.4107C27.0822 26.24 27.1676 26.0516 27.1667 25.8453V6.15467C27.1667 5.94933 27.0813 5.76089 26.9107 5.58933C26.74 5.41778 26.552 5.33244 26.3467 5.33333H6.65334C6.44889 5.33333 6.26089 5.41867 6.08934 5.58933C5.91778 5.76 5.83245 5.948 5.83334 6.15333V25.8467C5.83334 26.0511 5.91867 26.2391 6.08934 26.4107C6.26 26.5822 6.448 26.6676 6.65334 26.6667"/>
</mask>
<path d="M6.33334 26.6667V5.33333H5.33334V26.6667H6.33334ZM4.5 25.8467L5.5 25.8481V25.8467H4.5ZM6.65334 4V3L6.65188 3L6.65334 4ZM28.5 6.15467H29.5L29.5 6.15322L28.5 6.15467ZM26.3467 28L26.3481 27H26.3467V28ZM27.1667 25.8453H26.1667L26.1667 25.8496L27.1667 25.8453ZM26.3467 5.33333V6.33334L26.351 6.33332L26.3467 5.33333ZM5.83334 6.15333H6.83335L6.83333 6.149L5.83334 6.15333ZM6.65467 27C6.28868 27 6.03499 26.8883 5.82234 26.6761L4.40966 28.0919C5.02013 28.701 5.79221 29 6.65467 29V27ZM5.82234 26.6761C5.61065 26.4649 5.49947 26.2129 5.5 25.8481L3.5 25.8452C3.49875 26.7088 3.79824 27.4818 4.40966 28.0919L5.82234 26.6761ZM5.5 25.8467V6.15333H3.5V25.8467H5.5ZM5.5 6.15333C5.5 5.78937 5.6113 5.53712 5.82368 5.3252L4.41099 3.90946C3.80026 4.51888 3.5 5.29063 3.5 6.15333H5.5ZM5.82368 5.3252C6.0373 5.11204 6.291 5.00053 6.65479 5L6.65188 3C5.79078 3.00125 5.02048 3.30129 4.41099 3.90946L5.82368 5.3252ZM6.65334 5H26.3467V3H6.65334V5ZM26.3467 5C26.7106 5 26.9629 5.1113 27.1748 5.32368L28.5905 3.91099C27.9811 3.30025 27.2094 3 26.3467 3V5ZM27.1748 5.32368C27.3877 5.537 27.4995 5.791 27.5 6.15612L29.5 6.15322C29.4988 5.29167 29.199 4.52078 28.5905 3.91099L27.1748 5.32368ZM27.5 6.15467V25.8467H29.5V6.15467H27.5ZM27.5 25.8467C27.5 26.2106 27.3887 26.4638 27.1756 26.6769L28.5898 28.0911C29.1998 27.4811 29.5 26.7094 29.5 25.8467H27.5ZM27.1756 26.6769C26.9626 26.8899 26.7103 27.0005 26.3481 27L26.3452 29C27.2079 29.0012 27.9797 28.7012 28.5898 28.0911L27.1756 26.6769ZM26.3467 27H6.65467V29H26.3467V27ZM6.65467 27.6667H26.3467V25.6667H6.65467V27.6667ZM26.3467 27.6667C26.8634 27.6667 27.294 27.4399 27.6159 27.1196L26.2054 25.7017C26.1899 25.7172 26.1962 25.7064 26.2277 25.6921C26.2622 25.6764 26.3049 25.6667 26.3467 25.6667V27.6667ZM27.6159 27.1196C27.9417 26.7956 28.1689 26.3611 28.1667 25.841L26.1667 25.8496C26.1665 25.8086 26.1759 25.7651 26.1924 25.7288C26.2074 25.6956 26.2195 25.6877 26.2054 25.7017L27.6159 27.1196ZM28.1667 25.8453V6.15467H26.1667V25.8453H28.1667ZM28.1667 6.15467C28.1667 5.63827 27.9409 5.20703 27.6196 4.88407L26.2017 6.2946C26.2168 6.30976 26.2059 6.30326 26.1917 6.27184C26.1761 6.23746 26.1667 6.19536 26.1667 6.15467H28.1667ZM27.6196 4.88407C27.2965 4.55932 26.8628 4.33109 26.3423 4.33334L26.351 6.33332C26.3088 6.33351 26.2648 6.32378 26.2284 6.30725C26.195 6.29213 26.1873 6.2801 26.2017 6.2946L27.6196 4.88407ZM26.3467 4.33333H6.65334V6.33333H26.3467V4.33333ZM6.65334 4.33333C6.13665 4.33333 5.70605 4.56008 5.38407 4.88039L6.7946 6.29827C6.81012 6.28284 6.8038 6.29363 6.77232 6.30792C6.73782 6.32358 6.69513 6.33333 6.65334 6.33333V4.33333ZM5.38407 4.88039C5.05932 5.20346 4.83109 5.63724 4.83335 6.15766L6.83333 6.149C6.83351 6.19118 6.82378 6.23524 6.80726 6.27165C6.79213 6.30498 6.7801 6.3127 6.7946 6.29827L5.38407 4.88039ZM4.83334 6.15333V25.8467H6.83334V6.15333H4.83334ZM4.83334 25.8467C4.83334 26.3634 5.06008 26.794 5.38039 27.1159L6.79828 25.7054C6.78284 25.6899 6.79364 25.6962 6.80792 25.7277C6.82358 25.7622 6.83334 25.8049 6.83334 25.8467H4.83334ZM5.38039 27.1159C5.70346 27.4407 6.13724 27.6689 6.65766 27.6667L6.64901 25.6667C6.69118 25.6665 6.73524 25.6762 6.77165 25.6927C6.80498 25.7079 6.8127 25.7199 6.79828 25.7054L5.38039 27.1159Z" fill="#A3A3A3" mask="url(#path-1-inside-1_4422_3979)"/>
<g opacity="0.5">
<path d="M12.7561 24.9241H11.5774L11.5761 16.2841C10.9476 16.1579 10.4232 15.8668 10.0027 15.4108C9.58229 14.9548 9.37207 14.3961 9.37207 13.7348V8.92412C9.37296 8.77923 9.42274 8.6579 9.5214 8.56012C9.62007 8.46234 9.7414 8.41301 9.8854 8.41212C10.0294 8.41123 10.1507 8.46057 10.2494 8.56012C10.3481 8.65968 10.3974 8.78101 10.3974 8.92412V13.1815H11.6547V8.92412C11.6538 8.77923 11.7032 8.6579 11.8027 8.56012C11.9023 8.46234 12.0236 8.41301 12.1667 8.41212C12.3098 8.41123 12.4312 8.46057 12.5307 8.56012C12.6303 8.65968 12.6801 8.78101 12.6801 8.92412V13.1815H13.9361V8.92412C13.9361 8.78012 13.9858 8.65879 14.0854 8.56012C14.185 8.46145 14.3063 8.41212 14.4494 8.41212C14.5925 8.41212 14.7138 8.46145 14.8134 8.56012C14.9121 8.65968 14.9614 8.78101 14.9614 8.92412V13.7348C14.9614 14.3961 14.7512 14.9548 14.3307 15.4108C13.9103 15.8659 13.3854 16.157 12.7561 16.2841V24.9241Z" fill="#A3A3A3"/>
<path d="M20.7561 24.9241H19.5774V16.6108C18.861 16.3415 18.293 15.8437 17.8734 15.1175C17.4538 14.3903 17.2441 13.5219 17.2441 12.5121C17.245 11.3308 17.5232 10.3521 18.0787 9.57612C18.6343 8.80012 19.3303 8.41212 20.1667 8.41212C21.0032 8.41212 21.6992 8.80012 22.2547 9.57612C22.8112 10.3512 23.0894 11.3299 23.0894 12.5121C23.0894 13.5219 22.8796 14.3903 22.4601 15.1175C22.0405 15.8437 21.4725 16.3419 20.7561 16.6121V24.9241Z" fill="#A3A3A3"/>
</g>
</svg>
