<svg width="30" height="30" viewBox="0 0 30 30" fill="none" xmlns="http://www.w3.org/2000/svg">
<rect width="30" height="30" rx="15" fill="#FEEDD9"/>
<mask id="mask0_1651_5723" style="mask-type:luminance" maskUnits="userSpaceOnUse" x="6" y="6" width="18" height="18">
<path d="M7.5 7.5H22.5" stroke="white" stroke-width="1.45" stroke-linecap="round" stroke-linejoin="round"/>
<path d="M20.25 7.5H9.75C9.33579 7.5 9 7.83579 9 8.25V21.75C9 22.1642 9.33579 22.5 9.75 22.5H20.25C20.6642 22.5 21 22.1642 21 21.75V8.25C21 7.83579 20.6642 7.5 20.25 7.5Z" fill="#555555" stroke="white" stroke-width="1.45" stroke-linejoin="round"/>
<path d="M13.5 18H16.5V22.5H13.5V18Z" stroke="white" stroke-width="1.45" stroke-linecap="round" stroke-linejoin="round"/>
<path d="M11.625 10.5H12.375M11.625 12.75H12.375M14.625 10.5H15.375M14.625 12.75H15.375M17.625 10.5H18.375M17.625 12.75H18.375" stroke="white" stroke-width="1.45" stroke-linecap="round"/>
<path d="M7.5 22.5H22.5M16.5 18H17.25C17.457 18 17.6287 17.8305 17.589 17.6273C17.382 16.5623 16.3016 15.75 15 15.75C13.6984 15.75 12.618 16.5619 12.411 17.6273C12.3713 17.8305 12.543 18 12.75 18H13.5" stroke="white" stroke-width="1.45" stroke-linecap="round" stroke-linejoin="round"/>
</mask>
<g mask="url(#mask0_1651_5723)">
<path d="M6 6H24V24H6V6Z" fill="#F8951D"/>
</g>
</svg>
