<svg width="10" height="12" viewBox="0 0 10 12" fill="none" xmlns="http://www.w3.org/2000/svg">
<path d="M7.5 1V2M5 1V2M2.5 1V2M3 7.5H5M3 5H7M0.75 8V4.5C0.75 3.086 0.75 2.3785 1.1895 1.9395C1.6285 1.5 2.336 1.5 3.75 1.5H6.25C7.664 1.5 8.3715 1.5 8.8105 1.9395C9.25 2.3785 9.25 3.086 9.25 4.5V6C9.25 8.357 9.25 9.5355 8.5175 10.2675C7.786 11 6.6075 11 4.25 11H3.75C2.336 11 1.6285 11 1.1895 10.5605C0.75 10.1215 0.75 9.414 0.75 8Z" stroke="#718EBF" stroke-width="1.5" stroke-linecap="round" stroke-linejoin="round"/>
<path d="M9.25 7.25C9.25 7.41415 9.21767 7.5767 9.15485 7.72835C9.09203 7.88001 8.99996 8.01781 8.88388 8.13388C8.76781 8.24996 8.63001 8.34203 8.47835 8.40485C8.3267 8.46767 8.16415 8.5 8 8.5C7.75 8.5 7.456 8.4565 7.2135 8.5215C7.10751 8.54989 7.01086 8.60569 6.93327 8.68327C6.85569 8.76086 6.79989 8.85751 6.7715 8.9635C6.7065 9.206 6.75 9.5005 6.75 9.75C6.75 10.0815 6.6183 10.3995 6.38388 10.6339C6.14946 10.8683 5.83152 11 5.5 11" stroke="#718EBF" stroke-width="1.5" stroke-linecap="round" stroke-linejoin="round"/>
</svg>
