<svg width="534" height="162" viewBox="0 0 534 162" fill="none" xmlns="http://www.w3.org/2000/svg">
<path d="M205.194 143.675C229.802 143.675 246.97 131.276 250.976 110.674H229.42C226.75 119.64 218.356 124.599 205.575 124.599C190.124 124.599 181.349 116.206 179.632 99.6098L250.595 99.4191V92.361C250.595 62.984 232.663 44.0987 204.431 44.0987C176.771 44.0987 157.504 64.51 157.504 94.0778C157.504 123.264 177.152 143.675 205.194 143.675ZM204.622 63.1747C218.547 63.1747 227.513 71.7589 227.513 84.7306H180.204C182.493 70.6143 190.887 63.1747 204.622 63.1747Z" fill="white"/>
<path d="M296.331 143.675C311.019 143.675 323.8 136.999 327.806 127.27L329.523 141.195H349.934V83.9675C349.934 57.8334 334.292 44.0987 308.921 44.0987C283.359 44.0987 266.572 57.4519 266.572 77.8632H286.411C286.411 67.9437 294.042 62.2209 307.776 62.2209C319.604 62.2209 327.234 67.3714 327.234 80.1523V82.2507L299.002 84.3491C276.683 86.0659 264.092 96.9392 264.092 114.298C264.092 132.039 276.301 143.675 296.331 143.675ZM303.961 126.125C293.47 126.125 287.747 121.929 287.747 113.345C287.747 105.714 293.279 100.945 307.776 99.6098L327.425 98.0838V103.044C327.425 117.541 318.268 126.125 303.961 126.125Z" fill="white"/>
<path d="M403.541 141.195V66.4176H421.854V46.9601H403.541V17.5831H380.268V46.9601H362.146V66.4176H380.268V141.195H403.541Z" fill="white"/>
<path d="M447.958 28.0749C455.589 28.0749 461.884 21.7798 461.884 13.9587C461.884 6.13752 455.589 0.0332031 447.958 0.0332031C439.946 0.0332031 433.651 6.13752 433.651 13.9587C433.651 21.7798 439.946 28.0749 447.958 28.0749ZM436.322 141.195H459.595V46.9601H436.322V141.195Z" fill="white"/>
<path d="M515.687 141.195V66.4176H534V46.9601H515.687V17.5831H492.414V46.9601H474.292V66.4176H492.414V141.195H515.687Z" fill="white"/>
<path d="M46.9067 37.0807C49.1831 45.7125 54.5163 51.949 61.0562 59.0245C68.1681 66.7152 75.1107 74.4954 74.6031 85.6135C74.6381 86.3797 74.6367 87.1292 74.6031 87.8633V108.81C75.403 113.95 70.0894 109.838 65.7546 115.252C63.4655 118.108 59.1615 117.758 54.8295 119.314C51.2177 123.835 48.3973 128.473 46.9053 134.146H103.306C101.602 127.679 98.1802 122.557 93.8202 117.418C90.1384 117.888 86.7154 120.265 84.713 117.766C80.3782 112.352 74.8087 113.956 75.6141 108.817V87.9417C75.5764 87.1824 75.5736 86.4035 75.6141 85.6135C75.1065 74.4954 82.0464 66.718 89.1624 59.0245C91.4557 56.541 93.6021 54.1625 95.5192 51.7532C75.6826 52.093 78.8596 34.9077 46.9067 37.0807Z" fill="white"/>
<path d="M39.1545 30.041C39.9935 46.1706 48.8476 55.7491 56.2923 63.8034C62.8853 70.9348 68.501 77.0147 67.9598 85.6171C68.501 94.2181 62.8853 100.299 56.2923 107.431C48.8476 115.487 39.9963 125.065 39.1545 141.193H111.874C111.035 125.065 102.181 115.487 94.7348 107.431C88.1417 100.299 82.5261 94.2209 83.0686 85.6171C82.5261 77.0175 88.1417 70.9348 94.7348 63.8034C102.181 55.7491 111.031 46.1706 111.874 30.041H39.1545ZM51.8792 67.8822C43.2851 58.5862 32.9795 47.4347 33.0704 27.2709V26.9997L33.0956 24.0059H117.926L117.951 26.9997V27.2709C118.043 47.4347 107.743 58.5932 99.1437 67.8822C93.4637 74.0265 88.6339 79.2534 89.094 85.3906V85.845C88.6339 91.9836 93.4637 97.2091 99.1437 103.355C107.736 112.644 118.039 123.794 117.951 143.959V144.229L117.926 147.223H33.1012L33.076 144.229V143.959C32.9851 123.794 43.2907 112.637 51.8848 103.348C57.5633 97.2022 62.3945 91.9766 61.9331 85.838V85.3906C62.3945 79.2534 57.5633 74.0265 51.8848 67.8822H51.8792Z" fill="white"/>
<path fill-rule="evenodd" clip-rule="evenodd" d="M31.4621 18.5801H119.564C121.084 18.5841 122.54 19.1895 123.614 20.2637C124.688 21.338 125.294 22.7939 125.298 24.3132C125.294 25.8326 124.689 27.2886 123.614 28.363C122.54 29.4374 121.084 30.0426 119.564 30.0463H31.4621C29.9428 30.0422 28.487 29.4369 27.4127 28.3626C26.3384 27.2883 25.7331 25.8324 25.729 24.3132C25.7334 22.794 26.3389 21.3384 27.4131 20.2642C28.4873 19.1899 29.943 18.5845 31.4621 18.5801Z" fill="white"/>
<path fill-rule="evenodd" clip-rule="evenodd" d="M31.4621 141.188H119.564C121.084 141.192 122.54 141.797 123.614 142.871C124.688 143.945 125.294 145.401 125.298 146.921C125.294 148.44 124.689 149.896 123.614 150.97C122.54 152.045 121.084 152.65 119.564 152.654H31.4621C29.9428 152.65 28.487 152.044 27.4127 150.97C26.3384 149.896 25.7331 148.44 25.729 146.921C25.7334 145.401 26.3389 143.946 27.4131 142.872C28.4873 141.797 29.943 141.192 31.4621 141.188Z" fill="white"/>
</svg>
