<svg width="33" height="40" viewBox="0 0 33 40" fill="none" xmlns="http://www.w3.org/2000/svg">
<path d="M32.8546 34.8377C23.2206 42.2556 9.78295 42.1963 0.214844 34.6936L7.22761 31.4063C7.56158 31.2493 7.88212 31.0651 8.18599 30.8557C8.27823 30.7923 8.37046 30.726 8.45837 30.6568C9.2216 30.0729 9.84984 29.3311 10.3002 28.4821C10.641 27.8289 10.8672 27.1221 10.9689 26.3924C11.0393 25.9196 11.0749 25.4422 11.0756 24.9642C11.0756 24.1398 11.0309 23.3155 11.0222 22.4897C11.0165 22.0324 11.0117 21.5755 11.0078 21.1191L11.2961 21.2633L12.0455 21.6509L12.3928 21.71L16.4108 22.3931L20.8957 23.157L21.0312 27.7687L21.0759 29.2762L21.0975 30.0083V30.0559L22.8413 30.7649L32.8546 34.8377Z" fill="#F2D4CF"/>
<path d="M21.0975 29.7224C20.6022 29.8076 20.0926 29.7287 19.6462 29.4976L11.0467 22.4675C11.0367 22.1418 11.028 22.4834 11.0237 22.1577C11.0179 21.7003 11.0131 21.2435 11.0093 20.7871L11.2975 20.9312L12.0469 21.3189L12.3942 21.378L16.4094 22.0698L20.8943 22.8336L21.0298 27.4453L21.0745 28.9528L21.0961 29.6849V29.7325L21.0975 29.7224Z" fill="#DAAEA8"/>
<path d="M30.7781 0.367188L30.7391 0.38304L30.2981 8.75916C30.0646 13.208 27.23 17.1007 23.0678 18.6889V18.6889L11.0339 22.8495C11.0339 22.7443 10.2687 21.9848 9.30453 21.061C6.77158 18.6521 5.30412 15.3322 5.22744 11.8375V11.8375C5.09197 5.73989 9.8392 0.555982 15.9411 0.37007C16.0564 0.37007 16.1717 0.37007 16.2885 0.37007L30.7781 0.367188Z" fill="url(#paint0_linear_3598_5755)"/>
<path d="M30.7363 0.382812L30.6599 7.91296C30.6121 12.7337 27.5889 17.0228 23.0649 18.6886V18.6886V8.79784C23.0649 8.79784 26.6376 0.423165 30.7363 0.382812Z" fill="url(#paint1_linear_3598_5755)"/>
<ellipse cx="9.59014" cy="17.0848" rx="2.45" ry="2.45" fill="#F2D4CF"/>
<circle cx="10.3678" cy="17.0841" r="2.19347" fill="#DAAEA8"/>
<path d="M10.3994 14.7733L11.0306 22.988L20.6058 28.5827C21.9805 29.0954 23.5197 28.4805 24.1626 27.1617C25.5404 24.3399 27.7512 19.8837 27.4601 18.2264C27.0277 15.7764 25.8748 14.9117 25.8748 14.9117L26.3547 12.038C26.5348 10.9557 26.7669 9.82577 26.4988 8.73768C26.1918 7.48963 25.2493 6.95783 24.4739 6.02539C22.4332 8.6541 19.0782 10.1399 16.1483 11.646C14.6365 12.4415 10.3994 14.7733 10.3994 14.7733Z" fill="#F2D4CF"/>
<path d="M15.0186 13.0739C16.3528 12.7984 17.725 12.7598 19.0726 12.96" stroke="#00214E" stroke-width="0.98"/>
<path d="M23.5288 13.0896C24.3524 12.8977 25.2014 12.8388 26.0437 12.9152" stroke="#00214E" stroke-width="0.98"/>
<path d="M20.2097 18.6348C19.9946 18.7449 19.8918 18.9954 19.9677 19.2248C20.0436 19.4542 20.2754 19.5941 20.5138 19.5542" stroke="#00214E" stroke-width="0.98"/>
<ellipse cx="17.0436" cy="15.13" rx="0.471265" ry="1.14429" transform="rotate(-85.77 17.0436 15.13)" fill="#00214E"/>
<ellipse cx="24.5512" cy="15.0258" rx="1.14429" ry="0.471265" transform="rotate(-7.27 24.5512 15.0258)" fill="#00214E"/>
<path d="M22.8126 17.1445C22.8126 17.1445 22.8544 17.9588 23.0446 18.3407C23.1268 18.505 23.255 18.6434 23.3329 18.8076C23.6528 19.4317 23.1369 19.5628 22.6396 19.5628" stroke="#00214E" stroke-width="0.98"/>
<path d="M32.8546 34.8379C23.2206 42.2558 9.78295 42.1965 0.214844 34.6938L7.22761 31.4064C7.56158 31.2494 7.88212 31.0653 8.18599 30.8559C8.27823 30.7925 8.37046 30.7262 8.45837 30.657C9.2216 30.073 9.84984 29.3312 10.3002 28.4823C10.641 27.8291 10.8672 27.1223 10.9689 26.3926C11.0707 26.4912 11.1775 26.5845 11.2888 26.6722C12.1725 27.3256 13.1315 27.8704 14.1453 28.2949C14.6374 28.5002 15.1407 28.6778 15.6527 28.8267C17.1954 29.2765 18.806 29.4469 20.4086 29.3297C20.6305 29.3124 20.8539 29.2908 21.0759 29.2749L21.0975 30.007V30.0546L22.8413 30.7637L32.8546 34.8379Z" fill="#00214E"/>
<path d="M17.8305 21.2133C17.8701 21.15 17.9344 21.1061 18.0078 21.0924C18.0812 21.0787 18.157 21.0964 18.2167 21.1413C18.5165 21.3517 19.0642 21.7985 19.8424 21.9527C20.9031 22.1645 21.8226 21.7394 22.0431 22.0132C22.167 22.1674 22.0157 22.3548 21.726 22.5897C21.1128 23.0478 20.3408 23.2395 19.5844 23.1215C18.5641 22.9298 17.7974 21.748 17.7974 21.3286C17.7986 21.288 17.81 21.2484 17.8305 21.2133V21.2133Z" fill="white"/>
<defs>
<linearGradient id="paint0_linear_3598_5755" x1="21.0772" y1="25.7964" x2="40.7789" y2="4.61186" gradientUnits="userSpaceOnUse">
<stop stop-color="#315676"/>
<stop offset="1" stop-color="#E1B9E0"/>
</linearGradient>
<linearGradient id="paint1_linear_3598_5755" x1="16.2289" y1="2.86913" x2="38.6921" y2="24.0425" gradientUnits="userSpaceOnUse">
<stop stop-color="#315676"/>
<stop offset="1" stop-color="#E1B9E0"/>
</linearGradient>
</defs>
</svg>
