<svg width="17" height="17" viewBox="0 0 17 17" fill="none" xmlns="http://www.w3.org/2000/svg">
<path d="M14.738 8.40193C14.8195 7.03554 14.4837 5.67666 13.7751 4.50555C13.0664 3.33444 12.0185 2.40645 10.7703 1.84467C9.52204 1.28289 8.13252 1.11389 6.78602 1.36007C5.43952 1.60625 4.19969 2.25599 3.23099 3.22308C2.26229 4.19018 1.6105 5.42894 1.36209 6.77503C1.11368 8.12112 1.28038 9.51092 1.84009 10.7601C2.3998 12.0092 3.32606 13.0587 4.496 13.7693C5.66593 14.4798 7.02425 14.8179 8.39078 14.7387M13.25 15.4999V10.9999M13.25 10.9999L15.5 13.2499M13.25 10.9999L11 13.2499M5.75003 6.49993H5.75753M10.25 6.49993H10.2575" stroke="#F8951D" stroke-width="2" stroke-linecap="round" stroke-linejoin="round"/>
<path d="M6.125 10.25C6.6185 10.73 7.295 11 8 11C8.705 11 9.3815 10.73 9.875 10.25" stroke="#F8951D" stroke-width="2" stroke-linecap="round" stroke-linejoin="round"/>
</svg>
