<svg width="50" height="50" viewBox="0 0 50 50" fill="none" xmlns="http://www.w3.org/2000/svg">
<rect width="50" height="50" rx="25" fill="#F4F4F4"/>
<path d="M34.4444 29.2207V23.8281C34.4444 19.1938 34.4444 16.8789 33.0207 15.4389C31.5969 14 29.3046 14 24.7222 14C20.1398 14 17.8475 14 16.4238 15.4389C15 16.8778 15 19.196 15 23.8281V29.2218C15 32.5662 15 34.2395 15.7929 34.9698C16.171 35.3187 16.6485 35.538 17.1573 35.5963C18.2235 35.7184 19.469 34.6165 21.959 32.4139C23.0608 31.4406 23.6106 30.9534 24.2469 30.8259C24.5602 30.7611 24.8843 30.7611 25.1975 30.8259C25.8349 30.9534 26.3847 31.4406 27.4855 32.4139C29.9755 34.6165 31.221 35.7184 32.2872 35.5952C32.7949 35.538 33.2735 35.3187 33.6515 34.9698C34.4444 34.2395 34.4444 32.5662 34.4444 29.2207Z" stroke="#1D1929" stroke-width="1.16667"/>
<path d="M27.9629 18.3203H21.4814" stroke="#1D1929" stroke-width="1.16667" stroke-linecap="round"/>
</svg>
