<svg width="50" height="50" viewBox="0 0 50 50" fill="none" xmlns="http://www.w3.org/2000/svg">
<g clip-path="url(#clip0_4023_8939)">
<rect width="50" height="50" rx="25" fill="white"/>
<path d="M34.4444 29.2207V23.8281C34.4444 19.1938 34.4444 16.8789 33.0207 15.4389C31.5969 14 29.3046 14 24.7222 14C20.1398 14 17.8475 14 16.4238 15.4389C15 16.8778 15 19.196 15 23.8281V29.2218C15 32.5662 15 34.2395 15.7929 34.9698C16.171 35.3187 16.6485 35.538 17.1573 35.5963C18.2235 35.7184 19.469 34.6165 21.959 32.4139C23.0608 31.4406 23.6106 30.9534 24.2469 30.8259C24.5602 30.7611 24.8843 30.7611 25.1975 30.8259C25.8349 30.9534 26.3847 31.4406 27.4855 32.4139C29.9755 34.6165 31.221 35.7184 32.2872 35.5952C32.7949 35.538 33.2735 35.3187 33.6515 34.9698C34.4444 34.2395 34.4444 32.5662 34.4444 29.2207Z" stroke="white" stroke-width="1.16667"/>
<path d="M27.9629 18.3203H21.4814" stroke="white" stroke-width="1.16667" stroke-linecap="round"/>
<path d="M25.3138 30.2543C24.9237 30.1739 24.5205 30.1739 24.1304 30.2543C23.697 30.3416 23.3219 30.5476 22.9332 30.8319C22.559 31.1055 22.1321 31.4826 21.6039 31.9492L21.5728 31.9767L21.5725 31.977C20.3168 33.0877 19.4109 33.888 18.687 34.4009C17.9501 34.9229 17.528 35.0516 17.2236 35.0167C16.8384 34.9726 16.4761 34.8065 16.1885 34.5411L16.1881 34.5407C15.9585 34.3292 15.7758 33.9191 15.6791 33.0141C15.5841 32.1249 15.5833 30.908 15.5833 29.2218V23.8281C15.5833 21.4957 15.5845 19.804 15.7562 18.5129C15.9257 17.238 16.252 16.4419 16.8384 15.8492C17.4241 15.2573 18.209 14.9288 19.467 14.7579C20.7425 14.5846 22.4144 14.5833 24.7222 14.5833C27.0301 14.5833 28.702 14.5846 29.9774 14.7579C31.2354 14.9288 32.0202 15.2572 32.6059 15.849M25.3138 30.2543C25.3145 30.2544 25.3151 30.2546 25.3157 30.2547L25.1975 30.8259L25.3119 30.2539C25.3126 30.254 25.3132 30.2542 25.3138 30.2543ZM25.3138 30.2543C25.7478 30.3415 26.1232 30.5475 26.5121 30.8319C26.8872 31.1061 27.3148 31.4843 27.8439 31.9521L27.8719 31.9769L27.872 31.977C29.1276 33.0877 30.0335 33.888 30.7574 34.4007C31.4942 34.9226 31.9161 35.0509 32.2203 35.0157L32.2218 35.0156C32.6054 34.9723 32.9685 34.8064 33.2559 34.5411L33.2564 34.5407C33.4859 34.3292 33.6686 33.9191 33.7653 33.014C33.8603 32.1246 33.8611 30.9074 33.8611 29.2207V23.8281C33.8611 21.4946 33.8599 19.8032 33.6882 18.5125C33.5187 17.2381 33.1926 16.4424 32.6059 15.849M32.6059 15.849C32.6059 15.8491 32.606 15.8491 32.606 15.8492L33.0207 15.4389L32.6059 15.849Z" fill="#F8951D" stroke="#F8951D" stroke-width="1.16667"/>
<path d="M27.9629 18.3203H21.4814H27.9629Z" fill="white"/>
<path d="M135 8.5H128.519H135Z" fill="white"/>
<path d="M27.9629 18.3203H21.4814M135 8.5H128.519" stroke="#F8951D" stroke-width="1.16667" stroke-linecap="round"/>
<path d="M19 18.5C19 18.2239 19.2239 18 19.5 18H29.5C29.7761 18 30 18.2239 30 18.5C30 18.7761 29.7761 19 29.5 19H19.5C19.2239 19 19 18.7761 19 18.5Z" fill="white"/>
</g>
<defs>
<clipPath id="clip0_4023_8939">
<rect width="50" height="50" rx="25" fill="white"/>
</clipPath>
</defs>
</svg>
