<svg width="148" height="45" viewBox="0 0 148 45" fill="none" xmlns="http://www.w3.org/2000/svg">
<path d="M56.8702 39.8109C63.6904 39.8109 68.4487 36.3744 69.559 30.6645H63.5847C62.8445 33.1493 60.5183 34.524 56.976 34.524C52.6935 34.524 50.2615 32.1977 49.7857 27.598L69.4533 27.5452V25.589C69.4533 17.447 64.4835 12.2129 56.6588 12.2129C48.9927 12.2129 43.6528 17.87 43.6528 26.0648C43.6528 34.1539 49.0984 39.8109 56.8702 39.8109ZM56.7116 17.4999C60.5711 17.4999 63.056 19.879 63.056 23.4742H49.9443C50.5787 19.5618 52.905 17.4999 56.7116 17.4999Z" fill="#F8951D"/>
<path d="M82.1292 39.8109C86.2002 39.8109 89.7424 37.9605 90.8527 35.2641L91.3285 39.1236H96.9856V23.2627C96.9856 16.0195 92.6503 12.2129 85.6186 12.2129C78.5341 12.2129 73.8815 15.9138 73.8815 21.5709H79.38C79.38 18.8216 81.4948 17.2355 85.3014 17.2355C88.5793 17.2355 90.6941 18.663 90.6941 22.2053V22.7869L82.8694 23.3684C76.6836 23.8443 73.1942 26.8578 73.1942 31.669C73.1942 36.5859 76.5779 39.8109 82.1292 39.8109ZM84.244 34.9469C81.3362 34.9469 79.7501 33.7838 79.7501 31.4046C79.7501 29.2899 81.2833 27.9681 85.3014 27.598L90.747 27.1751V28.5497C90.747 32.5678 88.2092 34.9469 84.244 34.9469Z" fill="#F8951D"/>
<path d="M111.843 39.1236V18.3987H116.918V13.006H111.843V4.86402H105.393V13.006H100.37V18.3987H105.393V39.1236H111.843Z" fill="#F8951D"/>
<path d="M124.153 7.77185C126.268 7.77185 128.013 6.02715 128.013 3.85949C128.013 1.69183 126.268 0 124.153 0C121.933 0 120.188 1.69183 120.188 3.85949C120.188 6.02715 121.933 7.77185 124.153 7.77185ZM120.928 39.1236H127.378V13.006H120.928V39.1236Z" fill="#F8951D"/>
<path d="M142.924 39.1236V18.3987H148V13.006H142.924V4.86402H136.474V13.006H131.452V18.3987H136.474V39.1236H142.924Z" fill="#F8951D"/>
<path d="M28.6314 10.2675C28.0005 12.6599 26.5223 14.3883 24.7098 16.3493C22.7387 18.4808 20.8145 20.6372 20.9552 23.7185C20.9455 23.9309 20.9459 24.1387 20.9552 24.3421V30.1476C20.7335 31.5722 22.2062 30.4324 23.4076 31.933C24.042 32.7244 25.2349 32.6275 26.4355 33.0589C27.4366 34.3118 28.2183 35.5973 28.6318 37.1696H13C13.4724 35.3772 14.4208 33.9576 15.6291 32.5333C16.6495 32.6636 17.5983 33.3224 18.1532 32.6298C19.3546 31.1293 20.8982 31.5738 20.675 30.1495V24.3638C20.6855 24.1534 20.6863 23.9375 20.675 23.7185C20.8157 20.6372 18.8923 18.4816 16.9201 16.3493C16.2845 15.661 15.6896 15.0018 15.1583 14.3341C20.656 14.4282 19.7755 9.66527 28.6314 10.2675Z" fill="#F8951D"/>
<path d="M10.8517 8.31524C11.0843 12.7856 13.5382 15.4403 15.6015 17.6726C17.4288 19.6491 18.9852 21.3342 18.8352 23.7184C18.9852 26.1022 17.4288 27.7876 15.6015 29.7641C13.5382 31.9968 11.085 34.6515 10.8517 39.1215H31.0062C30.7737 34.6515 28.3197 31.9968 26.256 29.7641C24.4287 27.7876 22.8723 26.1029 23.0227 23.7184C22.8723 21.3349 24.4287 19.6491 26.256 17.6726C28.3197 15.4403 30.7725 12.7856 31.0062 8.31524H10.8517ZM14.3784 18.8031C11.9966 16.2267 9.14032 13.136 9.16551 7.5475V7.47232L9.17249 6.64258H32.6835L32.6905 7.47232V7.5475C32.7161 13.136 29.8614 16.2286 27.478 18.8031C25.9037 20.506 24.5651 21.9546 24.6926 23.6556V23.7815C24.5651 25.4829 25.9037 26.9311 27.478 28.6344C29.8594 31.2089 32.7149 34.2992 32.6905 39.888V39.9628L32.6835 40.7926H9.17404L9.16706 39.9628V39.888C9.14187 34.2992 11.9981 31.207 14.38 28.6325C15.9538 26.9292 17.2928 25.4809 17.1649 23.7796V23.6556C17.2928 21.9546 15.9538 20.506 14.38 18.8031H14.3784Z" fill="#F8951D"/>
<path fill-rule="evenodd" clip-rule="evenodd" d="M8.71981 5.13867H33.1377C33.5588 5.1398 33.9623 5.30756 34.26 5.60531C34.5577 5.90305 34.7255 6.30655 34.7266 6.72762C34.7256 7.14872 34.5579 7.55228 34.2601 7.85005C33.9624 8.14781 33.5588 8.31555 33.1377 8.31657H8.71981C8.29874 8.31544 7.89524 8.14768 7.59749 7.84993C7.29975 7.55219 7.13198 7.14869 7.13086 6.72762C7.13209 6.30658 7.29989 5.90314 7.59761 5.60542C7.89533 5.3077 8.29877 5.1399 8.71981 5.13867Z" fill="#F8951D"/>
<path fill-rule="evenodd" clip-rule="evenodd" d="M8.71981 39.1211H33.1377C33.5588 39.1222 33.9623 39.29 34.26 39.5877C34.5577 39.8855 34.7255 40.289 34.7266 40.71C34.7256 41.1311 34.5579 41.5347 34.2601 41.8325C33.9624 42.1302 33.5588 42.298 33.1377 42.299H8.71981C8.29874 42.2979 7.89524 42.1301 7.59749 41.8324C7.29975 41.5346 7.13198 41.1311 7.13086 40.71C7.13209 40.289 7.29989 39.8856 7.59761 39.5878C7.89533 39.2901 8.29877 39.1223 8.71981 39.1211Z" fill="#F8951D"/>
</svg>
