<svg width="20" height="20" viewBox="0 0 20 20" fill="none" xmlns="http://www.w3.org/2000/svg">
<circle cx="9.99984" cy="5.00033" r="3.33333" stroke="#1D1929" stroke-width="1.5"/>
<path opacity="0.5" d="M15 7.49967C16.3807 7.49967 17.5 6.56693 17.5 5.41634C17.5 4.26575 16.3807 3.33301 15 3.33301" stroke="#1D1929" stroke-width="1.5" stroke-linecap="round"/>
<path opacity="0.5" d="M5 7.49967C3.61929 7.49967 2.5 6.56693 2.5 5.41634C2.5 4.26575 3.61929 3.33301 5 3.33301" stroke="#1D1929" stroke-width="1.5" stroke-linecap="round"/>
<ellipse cx="10" cy="14.1663" rx="5" ry="3.33333" stroke="#1D1929" stroke-width="1.5"/>
<path opacity="0.5" d="M16.6665 15.8337C18.1284 15.5131 19.1665 14.7012 19.1665 13.7503C19.1665 12.7994 18.1284 11.9876 16.6665 11.667" stroke="#1D1929" stroke-width="1.5" stroke-linecap="round"/>
<path opacity="0.5" d="M3.3335 15.8337C1.87162 15.5131 0.833496 14.7012 0.833496 13.7503C0.833496 12.7994 1.87162 11.9876 3.3335 11.667" stroke="#1D1929" stroke-width="1.5" stroke-linecap="round"/>
</svg>
