<svg width="33" height="32" viewBox="0 0 33 32" fill="none" xmlns="http://www.w3.org/2000/svg">
<rect x="21.8333" y="17.334" width="8" height="8" rx="4" stroke="#A3A3A3" stroke-width="1.5"/>
<path d="M15.1667 21.3333V19.3333C15.1667 16.8192 15.1667 15.5621 14.3857 14.781C13.6047 14 12.3476 14 9.83341 14H9.03342C8.53816 14 8.29053 14 8.08163 14.0164C5.46629 14.2223 3.38902 16.2995 3.18319 18.9149C3.16675 19.1238 3.16675 19.3714 3.16675 19.8667C3.16675 19.9905 3.16675 20.0524 3.17086 20.1046C3.22232 20.7584 3.74163 21.2778 4.39547 21.3292C4.44769 21.3333 4.5096 21.3333 4.63341 21.3333H15.1667ZM15.1667 21.3333H21.8334" stroke="#A3A3A3" stroke-width="1.5" stroke-linecap="round"/>
<path opacity="0.5" d="M13.1667 21.334C13.1667 23.5431 11.3759 25.334 9.16675 25.334C6.95761 25.334 5.16675 23.5431 5.16675 21.334" stroke="#A3A3A3" stroke-width="1.5" stroke-linecap="round"/>
<path d="M16.5 6.66602H17.2038C18.8076 6.66602 19.6095 6.66602 20.2539 7.06428C20.8983 7.46254 21.2569 8.17977 21.9741 9.61421L25.8333 17.3327" stroke="#A3A3A3" stroke-width="1.5" stroke-linecap="round"/>
<path opacity="0.5" d="M24.6901 14.6667L25.599 13.9971C25.9495 13.7389 26.1248 13.6098 26.2466 13.4415C26.3296 13.3269 26.3938 13.1999 26.4368 13.0652C26.5 12.8673 26.5 12.6496 26.5 12.2143C26.5 11.391 26.5 10.9794 26.3245 10.6721C26.2063 10.4652 26.0348 10.2937 25.8279 10.1755C25.5206 10 25.109 10 24.2857 10H22.5" stroke="#A3A3A3" stroke-width="1.5" stroke-linecap="round"/>
</svg>
