<svg width="33" height="32" viewBox="0 0 33 32" fill="none" xmlns="http://www.w3.org/2000/svg">
<path opacity="0.5" d="M9.16675 25.334C11.3759 25.334 13.1667 23.5431 13.1667 21.334H5.16675C5.16675 23.5431 6.95761 25.334 9.16675 25.334Z" fill="#F8951D"/>
<path opacity="0.5" d="M25.5991 13.9971L24.4999 14.6667L22.3098 10H24.2857C25.109 10 25.5206 10 25.828 10.1755C26.0349 10.2937 26.2063 10.4652 26.3245 10.6721C26.5 10.9794 26.5 11.391 26.5 12.2143C26.5 12.6496 26.5 12.8673 26.4368 13.0652C26.3938 13.1999 26.3296 13.3269 26.2466 13.4415C26.1248 13.6098 25.9496 13.7389 25.5991 13.9971L25.5991 13.9971Z" fill="#F8951D"/>
<path d="M18.9858 7.7105C18.5676 7.66725 18.0263 7.66602 17.2039 7.66602H16.5001C15.9478 7.66602 15.5001 7.2183 15.5001 6.66602C15.5001 6.11373 15.9478 5.66602 16.5001 5.66602H17.2531H17.2531C18.013 5.66599 18.6583 5.66597 19.1915 5.7211C19.7593 5.77981 20.284 5.90727 20.7797 6.21363C21.2754 6.51999 21.624 6.93229 21.9304 7.41385C22.2182 7.86614 22.5068 8.44327 22.8466 9.12302L27.0448 17.5194C28.6618 18.0326 29.8334 19.5458 29.8334 21.3327C29.8334 23.5418 28.0426 25.3327 25.8334 25.3327C23.9696 25.3327 22.4035 24.0579 21.9594 22.3327L4.58038 22.3327C4.49194 22.3327 4.40134 22.3321 4.31703 22.3255C3.17282 22.2354 2.26401 21.3266 2.17396 20.1824C2.16664 20.0894 2.1667 19.9887 2.16676 19.8917L2.16677 19.8152C2.16674 19.3685 2.16672 19.0844 2.18629 18.8358C2.43072 15.7301 4.89748 13.2633 8.00319 13.0189C8.03562 13.0163 8.06866 13.0141 8.10257 13.0122C8.29619 13.0012 8.51864 12.9996 8.82243 12.9994L9.90277 12.9994H9.90278C11.1007 12.9993 12.0997 12.9993 12.8927 13.1059C13.7298 13.2184 14.4855 13.466 15.0928 14.0733C15.7001 14.6806 15.9477 15.4363 16.0602 16.2734C16.1668 17.0664 16.1668 18.0654 16.1668 19.2633V19.2633L16.1668 20.3327H21.9594C22.317 18.9433 23.4023 17.8461 24.7848 17.4715L21.0798 10.0614C20.712 9.32584 20.4688 8.84229 20.2431 8.48751C20.0298 8.15228 19.8769 8.00684 19.7282 7.91493C19.5795 7.82303 19.3811 7.75136 18.9858 7.7105Z" fill="#F8951D"/>
</svg>
