<svg width="50" height="50" viewBox="0 0 50 50" fill="none" xmlns="http://www.w3.org/2000/svg">
<rect width="50" height="50" rx="25" fill="#417C71"/>
<path d="M34 29.0909V24.0975C34 19.8089 34 17.6646 32.682 16.3323C31.364 15 29.2426 15 25 15C20.7574 15 18.636 15 17.318 16.3323C16 17.6646 16 19.8089 16 24.0975V29.0909C16 32.1875 16 33.7358 16.7341 34.4123C17.0842 34.735 17.5261 34.9377 17.9969 34.9915C18.984 35.1045 20.1367 34.0849 22.4422 32.0458C23.4612 31.1445 23.9708 30.6938 24.5603 30.5751C24.8506 30.5166 25.1494 30.5166 25.4397 30.5751C26.0292 30.6938 26.5388 31.1445 27.5578 32.0458C29.8633 34.0849 31.016 35.1045 32.0031 34.9915C32.4739 34.9377 32.9158 34.735 33.2659 34.4123C34 33.7358 34 32.1875 34 29.0909Z" stroke="white" stroke-width="1.5"/>
<path opacity="0.5" d="M28 19H22" stroke="white" stroke-width="1.5" stroke-linecap="round"/>
</svg>
